<svg xmlns="http://www.w3.org/2000/svg" xmlns:xlink="http://www.w3.org/1999/xlink" width="110" height="70" viewBox="0 0 150 73.74">
<defs>
<linearGradient id="a" x1="-6.862" y1="4.271" x2="-6.339" y2="3.943" gradientUnits="objectBoundingBox">
<stop offset="0" stop-color="#1C75BC"></stop>
<stop offset="1" stop-color="#262262"></stop>
</linearGradient>
<linearGradient id="b" x1="-7.487" y1="7.158" x2="-6.822" y2="6.451" gradientUnits="objectBoundingBox">
<stop offset="0" stop-color="#981B1E"></stop>
<stop offset="1" stop-color="#ED1C24"></stop>
</linearGradient>
<linearGradient id="c" x1="-27.885" y1="24.137" x2="-27.224" y2="23.43" gradientUnits="objectBoundingBox">
<stop offset="0" stop-color="#ED1C24"></stop>
<stop offset="1" stop-color="#981B1E"></stop>
</linearGradient>
<linearGradient id="d" x1="-13.036" y1="82.125" x2="-12.94" y2="81.417" gradientUnits="objectBoundingBox">
<stop offset="0" stop-color="#262262"></stop>
<stop offset="1" stop-color="#1C75BC"></stop>
</linearGradient>
</defs><g transform="translate(-18 -100.36)"><g transform="translate(18 100.36)"><path d="M141.088,200.42v1.815h-3.574v3.148h3.449v1.81h-3.449v3.472h3.681v1.815H135.06V200.42Z" transform="translate(-80.866 -154.096)" fill="#231F20"></path>
<path d="M153.45,200.42H155.9v10.245h3.171v1.815H153.45Z" transform="translate(-90.742 -154.096)" fill="#231F20"></path>
<path d="M176.512,200.42v1.815h-3.579v3.148h3.449v1.81h-3.449v3.472h3.681v1.815H170.48V200.42Z" transform="translate(-99.888 -154.096)" fill="#231F20"></path>
<path d="M195.776,208.534a6.718,6.718,0,0,1-.333,2.268,2.407,2.407,0,0,1-1.694,1.417,5.314,5.314,0,0,1-1.574.213q-2.213,0-2.977-1.056a3.7,3.7,0,0,1-.708-1.954,18.8,18.8,0,0,1-.093-2.231V205.21a21.191,21.191,0,0,1,.065-2.148,3.407,3.407,0,0,1,.593-1.852,3.584,3.584,0,0,1,3.079-1.19,3.753,3.753,0,0,1,2.727.856,3.7,3.7,0,0,1,.838,2.727v.435h-2.454v-.324l-.023-.491a2.37,2.37,0,0,0-.241-.926,1,1,0,0,0-.847-.417c-.657,0-1.051.412-1.19,1.273a11.98,11.98,0,0,0-.093,1.931v2.069c0,.463,0,1,.042,1.56q.083,1.94,1.222,1.94c.731,0,1.125-.463,1.19-1.5v-.986h2.454Z" transform="translate(-109.508 -153.882)" fill="#231F20"></path>
<path d="M208.339,200.42h7.708v1.815h-2.625V212.48h-2.468V202.235H208.33Z" transform="translate(-120.215 -154.096)" fill="#231F20"></path>
<path d="M233.01,200.42a4.693,4.693,0,0,1,2.755.606,3.075,3.075,0,0,1,1,2.583,5.391,5.391,0,0,1-.162,1.343,1.958,1.958,0,0,1-1.19,1.431,4.625,4.625,0,0,1-.634.213,6.4,6.4,0,0,1,.764.2q1.25.417,1.241,2.315V211.1a4.5,4.5,0,0,0,0,.648,5.471,5.471,0,0,0,.148.713h-2.472l-.093-.606a4.966,4.966,0,0,1-.065-.755v-1.986c0-.884-.306-1.389-.926-1.514a5.276,5.276,0,0,0-.606-.06h-.745v4.921H229.57V200.42Zm-.949,1.815v3.514h.745a1.681,1.681,0,0,0,1.153-.356,2.139,2.139,0,0,0,.352-1.417,4.414,4.414,0,0,0-.074-.792,1.032,1.032,0,0,0-.926-.926,3.275,3.275,0,0,0-.546-.042Z" transform="translate(-131.622 -154.096)" fill="#231F20"></path>
<path d="M250.159,204.749c0-1.014,0-1.7.042-2.065a2.468,2.468,0,0,1,.625-1.523,2.954,2.954,0,0,1,1.444-.9,6.227,6.227,0,0,1,1.611-.213q2.315,0,3.162,1.111a2.778,2.778,0,0,1,.625,1.523c.023.366.037,1.051.042,2.065v3.009a6.725,6.725,0,0,1-.616,3.435c-.556.833-1.611,1.25-3.157,1.255a4.523,4.523,0,0,1-2.611-.667,3.018,3.018,0,0,1-1.1-2.384,15.241,15.241,0,0,1-.069-1.639Zm2.454,3,.028,1.194c.037,1.13.463,1.694,1.3,1.694a1.069,1.069,0,0,0,1.139-.787,3.536,3.536,0,0,0,.153-.926l.028-1.194v-3l-.028-1.2q-.051-1.657-1.333-1.657c-.8,0-1.222.551-1.255,1.69l-.028,1.2Z" transform="translate(-142.678 -153.898)" fill="#231F20"></path>
<path d="M275.616,200.42l2.139,10.356V200.42h2.023v12.06h-3.611l-2.134-10.333V212.48H272V200.42Z" transform="translate(-154.408 -154.096)" fill="#231F20"></path>
<path d="M296.864,200.42v12.06H294.41V200.42Z" transform="translate(-166.444 -154.096)" fill="#231F20"></path>
<path d="M312.366,208.534a6.717,6.717,0,0,1-.333,2.268,2.407,2.407,0,0,1-1.694,1.417,5.314,5.314,0,0,1-1.574.213q-2.213,0-2.972-1.056a3.644,3.644,0,0,1-.713-1.954,18.813,18.813,0,0,1-.093-2.231V205.21a21.186,21.186,0,0,1,.065-2.148,3.408,3.408,0,0,1,.593-1.852,3.576,3.576,0,0,1,3.079-1.19,3.753,3.753,0,0,1,2.727.856,3.7,3.7,0,0,1,.838,2.727v.435h-2.454v-.815a2.315,2.315,0,0,0-.241-.926,1,1,0,0,0-.847-.417c-.657,0-1.051.412-1.19,1.273a11.982,11.982,0,0,0-.093,1.931v2.069c0,.463,0,1,.042,1.56q.083,1.937,1.222,1.94c.759,0,1.125-.463,1.19-1.5v-.986h2.458Z" transform="translate(-172.122 -153.882)" fill="#231F20"></path>
<path d="M328.034,208.465v.463q-.037,1.708,1.31,1.718a1.19,1.19,0,0,0,1.324-.958,2.08,2.08,0,0,0,.069-.546,1.477,1.477,0,0,0-.153-.694,1.723,1.723,0,0,0-.4-.463l-.366-.245-2.069-1.241a7.079,7.079,0,0,1-1-.694,2.532,2.532,0,0,1-.741-.926,3.583,3.583,0,0,1-.268-1.458q0-3.384,3.755-3.389c2.051,0,3.2.722,3.458,2.167a6.7,6.7,0,0,1,.1,1.2v.5h-2.454v-.4a6.266,6.266,0,0,0-.051-.736.981.981,0,0,0-1.13-.926c-.787,0-1.194.421-1.222,1.3a1.352,1.352,0,0,0,.167.755,2.315,2.315,0,0,0,.593.556l.514.333,2.032,1.2a6.522,6.522,0,0,1,.755.542,2.551,2.551,0,0,1,.694.926,3.991,3.991,0,0,1,.245,1.486c0,1.75-.671,2.833-2.028,3.241a5.769,5.769,0,0,1-1.852.264,5.9,5.9,0,0,1-1.8-.236,2.343,2.343,0,0,1-1.819-2.046,6.616,6.616,0,0,1-.1-1.264v-.426Z" transform="translate(-183.192 -153.887)" fill="#231F20"></path>
<path d="M139.635,151.238v.954q-.079,3.667,2.778,3.7a2.568,2.568,0,0,0,2.843-2.056,4.539,4.539,0,0,0,.144-1.171,3.138,3.138,0,0,0-.329-1.481,3.467,3.467,0,0,0-.861-.972l-.787-.532-4.435-2.6a14.3,14.3,0,0,1-2.144-1.486,5.315,5.315,0,0,1-1.593-2,7.723,7.723,0,0,1-.569-3.134q0-7.236,8.042-7.255,6.579,0,7.407,4.63a14.957,14.957,0,0,1,.218,2.583V141.5h-5.236v-.856a15.358,15.358,0,0,0-.111-1.579,2.1,2.1,0,0,0-2.421-1.977c-1.681-.028-2.556.9-2.616,2.778a2.778,2.778,0,0,0,.366,1.616,5.051,5.051,0,0,0,1.264,1.19l1.1.713,4.366,2.583a14.688,14.688,0,0,1,1.611,1.157,5.491,5.491,0,0,1,1.486,1.94,8.514,8.514,0,0,1,.528,3.19q0,5.625-4.343,6.944a12.769,12.769,0,0,1-4.014.569,13.148,13.148,0,0,1-3.847-.514,5.037,5.037,0,0,1-3.9-4.38,14.351,14.351,0,0,1-.2-2.713v-.926Z" transform="translate(-80.497 -118.002)" fill="#231F20"></path>
<path d="M184.163,134v16.893l.037,1.944a5.035,5.035,0,0,0,.44,2.435,2.393,2.393,0,0,0,2.167,1.046,2.459,2.459,0,0,0,2.268-.972,4.789,4.789,0,0,0,.514-2.509l.032-1.944V134h5.264v16.764q0,5.264-1.5,7.093a5.445,5.445,0,0,1-2.736,1.852,11.862,11.862,0,0,1-3.588.5,13.425,13.425,0,0,1-3.917-.532,5.4,5.4,0,0,1-3.7-3.593,18.069,18.069,0,0,1-.546-5.315V134Z" transform="translate(-104.405 -118.426)" fill="#231F20"></path>
<path d="M230.972,134q4.25.032,5.9,1.3,2.106,1.588,2.144,5.532a11.376,11.376,0,0,1-.352,2.875,4.2,4.2,0,0,1-2.542,3.065,10.769,10.769,0,0,1-1.356.463,14.012,14.012,0,0,1,1.63.435q2.676.926,2.653,5v4.25a11.142,11.142,0,0,0,.046,1.389,12.283,12.283,0,0,0,.319,1.523h-5.292l-.2-1.3a9.233,9.233,0,0,1-.134-1.616v-4.25c0-1.894-.662-2.972-1.958-3.241a9.374,9.374,0,0,0-1.3-.125h-1.611v10.537H223.68V134Zm-2.037,3.884v7.532h1.6a3.459,3.459,0,0,0,2.472-.773c.523-.5.731-1.481.75-3.023a8.61,8.61,0,0,0-.162-1.7,2.208,2.208,0,0,0-1.921-1.944,7.07,7.07,0,0,0-1.176-.088Z" transform="translate(-128.459 -118.426)" fill="#231F20"></path>
<path d="M268.578,134l2.968,10.5,3.3-10.5h5.44L274.2,150.088v9.75h-5.259v-9.768L262.86,134Z" transform="translate(-149.5 -118.426)" fill="#231F20"></path>
<path d="M307.831,154.194l-1.028,5.625H301.65L307.483,134H313.8l5.829,25.838h-5.167l-1.046-5.625Zm4.875-3.889-2.093-11.542-2.106,11.542Z" transform="translate(-170.332 -118.426)" fill="#231F20"></path>
<path d="M18,130.48l12.454,12.449,0,0L24.181,174.1l40.176-43.62-22.935,3.843,6.7-33.963Z" transform="translate(-18 -100.36)" fill="url(#a)"></path>
<path d="M64.356,165.42H18l12.435,12.472L24.181,209.04Z" transform="translate(-18 -135.3)" fill="url(#b)"></path>
<path d="M43.09,196.421l.838-4.111L55.595,204Z" transform="translate(-31.474 -149.741)" fill="url(#c)"></path>
<path d="M18,161.5H42.176l.667-3.375Z" transform="translate(-18 -131.385)" fill="url(#d)"></path>
<path d="M333.318,125.9h-.588v-.287h1.514v.287h-.588v2.264h-.338Z" transform="translate(-187.023 -113.92)" fill="#231F20"></path>
<path d="M337.394,128.161h-.324V125.61h.569l.463,2.056h0l.463-2.056h.569v2.551h-.324v-2.213h0l-.523,2.213h-.352l-.523-2.222h0Z" transform="translate(-189.354 -113.92)" fill="#231F20"></path>
</g>
</g></svg>